<svg width="27" height="27" viewBox="0 0 27 27" fill="none" xmlns="http://www.w3.org/2000/svg">
<path d="M13.5003 9.20428C11.1348 9.20428 9.20447 11.1346 9.20447 13.5001C9.20447 15.8655 11.1348 17.7959 13.5003 17.7959C15.8657 17.7959 17.7961 15.8655 17.7961 13.5001C17.7961 11.1346 15.8657 9.20428 13.5003 9.20428ZM26.3845 13.5001C26.3845 11.7212 26.4006 9.95838 26.3007 8.1827C26.2008 6.1202 25.7303 4.28973 24.2221 2.78152C22.7106 1.2701 20.8834 0.802814 18.8209 0.702912C17.042 0.603009 15.2792 0.619123 13.5035 0.619123C11.7246 0.619123 9.9618 0.603009 8.18611 0.702912C6.12361 0.802814 4.29315 1.27332 2.78494 2.78152C1.27352 4.29295 0.806232 6.1202 0.70633 8.1827C0.606427 9.9616 0.622541 11.7244 0.622541 13.5001C0.622541 15.2758 0.606427 17.0418 0.70633 18.8175C0.806232 20.88 1.27674 22.7104 2.78494 24.2186C4.29637 25.7301 6.12361 26.1973 8.18611 26.2972C9.96502 26.3971 11.7278 26.381 13.5035 26.381C15.2824 26.381 17.0452 26.3971 18.8209 26.2972C20.8834 26.1973 22.7138 25.7268 24.2221 24.2186C25.7335 22.7072 26.2008 20.88 26.3007 18.8175C26.4038 17.0418 26.3845 15.279 26.3845 13.5001V13.5001ZM13.5003 20.1097C9.84256 20.1097 6.89061 17.1578 6.89061 13.5001C6.89061 9.84236 9.84256 6.89041 13.5003 6.89041C17.158 6.89041 20.1099 9.84236 20.1099 13.5001C20.1099 17.1578 17.158 20.1097 13.5003 20.1097ZM20.3806 8.16336C19.5266 8.16336 18.837 7.47371 18.837 6.61971C18.837 5.7657 19.5266 5.07606 20.3806 5.07606C21.2346 5.07606 21.9243 5.7657 21.9243 6.61971C21.9246 6.8225 21.8848 7.02334 21.8073 7.21074C21.7298 7.39814 21.6161 7.56841 21.4727 7.7118C21.3293 7.8552 21.1591 7.96889 20.9717 8.04638C20.7843 8.12386 20.5834 8.16361 20.3806 8.16336V8.16336Z" fill="#FDE155"/>
</svg>
